<svg width="150" height="80" viewBox="0 0 150 80" fill="none" xmlns="http://www.w3.org/2000/svg">
<path d="M11.0762 61.8516C11.1673 61.4219 11.2324 61.0443 11.2715 60.7188C11.3236 60.3802 11.3626 60.1003 11.3887 59.8789C11.4147 59.6185 11.4277 59.3971 11.4277 59.2148C11.4147 58.9935 11.4017 58.7331 11.3887 58.4336C11.3887 58.1211 11.3757 57.8151 11.3496 57.5156C11.3366 57.2031 11.3171 56.9297 11.291 56.6953C11.265 56.4479 11.2324 56.2721 11.1934 56.168C11.1413 56.0638 11.0697 55.9531 10.9785 55.8359C10.7962 55.6146 10.5293 55.3997 10.1777 55.1914C10.4772 55.1263 10.7311 55.0742 10.9395 55.0352C11.1608 54.9831 11.3431 54.9375 11.4863 54.8984C11.6426 54.8464 11.7793 54.8008 11.8965 54.7617C12.0007 54.7227 12.1243 54.6836 12.2676 54.6445C12.3848 54.6185 12.528 54.5859 12.6973 54.5469C12.8665 54.5078 13.0618 54.4622 13.2832 54.4102L13.2246 56.1875C13.6413 55.6927 14.0645 55.3216 14.4941 55.0742C14.9238 54.8268 15.3275 54.651 15.7051 54.5469C16.1348 54.4167 16.5579 54.3516 16.9746 54.3516C17.4954 54.3776 17.9772 54.4622 18.4199 54.6055C18.8757 54.7487 19.2663 54.918 19.5918 55.1133C19.9303 55.2956 20.2038 55.4909 20.4121 55.6992C20.6204 55.9076 20.7441 56.0898 20.7832 56.2461C20.9395 56.7539 20.9785 57.2227 20.9004 57.6523C20.8223 58.069 20.7181 58.4792 20.5879 58.8828C20.4707 59.2734 20.3665 59.6641 20.2754 60.0547C20.1973 60.4453 20.2298 60.8685 20.373 61.3242C20.4251 61.4414 20.4772 61.5586 20.5293 61.6758C20.5814 61.7799 20.6465 61.8841 20.7246 61.9883C20.8027 62.0924 20.8939 62.1771 20.998 62.2422C20.8548 62.2292 20.7116 62.2227 20.5684 62.2227C20.4251 62.2096 20.2949 62.1966 20.1777 62.1836C20.0345 62.1706 19.9043 62.1576 19.7871 62.1445C19.6569 62.1315 19.4811 62.125 19.2598 62.125C18.8822 62.125 18.2962 62.1445 17.502 62.1836C17.6191 61.9102 17.7103 61.6823 17.7754 61.5C17.8535 61.3047 17.9186 61.1484 17.9707 61.0312C18.0228 60.888 18.0618 60.7773 18.0879 60.6992C18.2441 60.3216 18.3353 59.8919 18.3613 59.4102C18.4004 58.9284 18.3678 58.4401 18.2637 57.9453C18.2246 57.776 18.1595 57.5742 18.0684 57.3398C17.9772 57.1055 17.8535 56.8776 17.6973 56.6562C17.554 56.4349 17.3783 56.2461 17.1699 56.0898C16.9746 55.9336 16.7467 55.8424 16.4863 55.8164C16.2259 55.7904 15.9329 55.8555 15.6074 56.0117C15.2949 56.168 14.9564 56.4544 14.5918 56.8711C14.3184 57.2227 14.1035 57.6523 13.9473 58.1602C13.804 58.5898 13.7064 59.1302 13.6543 59.7812C13.6022 60.4193 13.6803 61.168 13.8887 62.0273C13.7064 62.0013 13.5371 61.9883 13.3809 61.9883C13.2246 61.9753 13.0944 61.9622 12.9902 61.9492C12.86 61.9362 12.7428 61.9232 12.6387 61.9102C12.5215 61.9102 12.3913 61.9036 12.248 61.8906C12.1178 61.8906 11.9551 61.8906 11.7598 61.8906C11.5645 61.8776 11.3366 61.8646 11.0762 61.8516ZM27.4238 55.25C27.7624 55.25 28.1139 55.3151 28.4785 55.4453C28.8431 55.5625 29.1947 55.7188 29.5332 55.9141C29.8717 56.0964 30.1777 56.2982 30.4512 56.5195C30.7376 56.7279 30.972 56.9297 31.1543 57.125C31.4798 57.4766 31.7012 57.9518 31.8184 58.5508C31.9486 59.1367 31.9746 59.7422 31.8965 60.3672C31.8184 60.9792 31.6361 61.5586 31.3496 62.1055C31.0632 62.6523 30.666 63.056 30.1582 63.3164C29.7936 63.4987 29.4355 63.6419 29.084 63.7461C28.7324 63.8503 28.3939 63.9284 28.0684 63.9805C27.7428 64.0326 27.4368 64.0586 27.1504 64.0586C26.8639 64.0586 26.6165 64.0521 26.4082 64.0391C26.0176 64.013 25.6074 63.8763 25.1777 63.6289C24.7611 63.3815 24.3639 63.0755 23.9863 62.7109C23.6217 62.3464 23.3092 61.9492 23.0488 61.5195C22.7884 61.0768 22.6322 60.6602 22.5801 60.2695C22.502 59.7357 22.4889 59.1758 22.541 58.5898C22.5931 58.0039 22.7819 57.4635 23.1074 56.9688C23.446 56.474 23.9538 56.0638 24.6309 55.7383C25.321 55.4128 26.252 55.25 27.4238 55.25ZM26.7793 62.8281C26.9225 62.8542 27.1178 62.8216 27.3652 62.7305C27.6126 62.6263 27.8535 62.4635 28.0879 62.2422C28.3353 62.0208 28.5501 61.7409 28.7324 61.4023C28.9277 61.0508 29.0449 60.6276 29.084 60.1328C29.123 59.651 29.123 59.2083 29.084 58.8047C29.0579 58.401 28.9993 58.0495 28.9082 57.75C28.8171 57.4375 28.7129 57.1836 28.5957 56.9883C28.4785 56.793 28.3548 56.6562 28.2246 56.5781C28.0033 56.4609 27.7363 56.3698 27.4238 56.3047C27.1113 56.2266 26.8444 56.2396 26.623 56.3438C26.5189 56.3958 26.3887 56.5065 26.2324 56.6758C26.0762 56.8451 25.9199 57.0599 25.7637 57.3203C25.6074 57.5677 25.4642 57.8542 25.334 58.1797C25.2168 58.5052 25.1322 58.8438 25.0801 59.1953C25.028 59.5469 25.015 59.9245 25.041 60.3281C25.0801 60.7318 25.1647 61.1159 25.2949 61.4805C25.4251 61.832 25.6074 62.138 25.8418 62.3984C26.0892 62.6458 26.4017 62.7891 26.7793 62.8281ZM50.1582 57.0664C50.002 57.0404 49.8066 57.0208 49.5723 57.0078C49.3509 56.9948 49.1361 56.9883 48.9277 56.9883C48.6934 56.9883 48.446 56.9948 48.1855 57.0078C47.9121 57.0208 47.6387 57.0339 47.3652 57.0469C47.1309 57.0599 46.8639 57.0794 46.5645 57.1055C46.278 57.1185 45.998 57.138 45.7246 57.1641C45.8288 57.112 45.9199 57.0404 45.998 56.9492C46.0892 56.8581 46.1673 56.7669 46.2324 56.6758C46.2975 56.5716 46.3561 56.4609 46.4082 56.3438C46.4733 56.1484 46.4668 55.9141 46.3887 55.6406C46.3105 55.3542 46.1673 55.0938 45.959 54.8594C45.7637 54.625 45.5098 54.4427 45.1973 54.3125C44.8978 54.1693 44.5658 54.1367 44.2012 54.2148C43.8105 54.306 43.459 54.4427 43.1465 54.625C42.847 54.8073 42.5931 55.0612 42.3848 55.3867C42.1895 55.6992 42.0462 56.0898 41.9551 56.5586C41.877 57.0143 41.8574 57.5612 41.8965 58.1992C41.9486 58.9935 42.0788 59.625 42.2871 60.0938C42.4954 60.5625 42.7493 60.9141 43.0488 61.1484C43.3483 61.3828 43.6738 61.526 44.0254 61.5781C44.39 61.6172 44.748 61.6172 45.0996 61.5781C45.347 61.526 45.5749 61.4154 45.7832 61.2461C45.9525 61.1029 46.1087 60.8945 46.252 60.6211C46.3952 60.3477 46.4603 59.9701 46.4473 59.4883L48.8301 59.3906C48.5566 60.1589 48.2246 60.7708 47.834 61.2266C47.4434 61.6693 47.0658 62.0143 46.7012 62.2617C46.2715 62.5482 45.8418 62.7435 45.4121 62.8477C44.8783 62.9388 44.403 62.9779 43.9863 62.9648C43.5697 62.9388 43.1921 62.8737 42.8535 62.7695C42.515 62.6654 42.2025 62.5352 41.916 62.3789C41.6296 62.2227 41.3561 62.0534 41.0957 61.8711C40.9264 61.7539 40.7376 61.5586 40.5293 61.2852C40.321 61.0117 40.1257 60.6862 39.9434 60.3086C39.7611 59.918 39.6113 59.4883 39.4941 59.0195C39.377 58.5508 39.3314 58.069 39.3574 57.5742C39.3835 57.0664 39.5007 56.5586 39.709 56.0508C39.9173 55.543 40.2493 55.0547 40.7051 54.5859C41.3952 53.8828 42.1309 53.4271 42.9121 53.2188C43.7064 52.9974 44.4551 52.9388 45.1582 53.043C45.8613 53.1341 46.4863 53.3359 47.0332 53.6484C47.5801 53.9609 47.9642 54.2995 48.1855 54.6641C48.4069 55.0286 48.5697 55.3086 48.6738 55.5039C48.791 55.6862 48.8757 55.8294 48.9277 55.9336C48.9928 56.0247 49.0449 56.0964 49.084 56.1484C49.1361 56.1875 49.2077 56.2461 49.2988 56.3242C49.3639 56.3893 49.4421 56.4609 49.5332 56.5391C49.6113 56.6042 49.7025 56.6823 49.8066 56.7734C49.9108 56.8646 50.028 56.9622 50.1582 57.0664ZM55.0996 55.25C55.4382 55.25 55.7897 55.3151 56.1543 55.4453C56.5189 55.5625 56.8704 55.7188 57.209 55.9141C57.5475 56.0964 57.8535 56.2982 58.127 56.5195C58.4134 56.7279 58.6478 56.9297 58.8301 57.125C59.1556 57.4766 59.377 57.9518 59.4941 58.5508C59.6243 59.1367 59.6504 59.7422 59.5723 60.3672C59.4941 60.9792 59.3118 61.5586 59.0254 62.1055C58.7389 62.6523 58.3418 63.056 57.834 63.3164C57.4694 63.4987 57.1113 63.6419 56.7598 63.7461C56.4082 63.8503 56.0697 63.9284 55.7441 63.9805C55.4186 64.0326 55.1126 64.0586 54.8262 64.0586C54.5397 64.0586 54.2923 64.0521 54.084 64.0391C53.6934 64.013 53.2832 63.8763 52.8535 63.6289C52.4368 63.3815 52.0397 63.0755 51.6621 62.7109C51.2975 62.3464 50.985 61.9492 50.7246 61.5195C50.4642 61.0768 50.3079 60.6602 50.2559 60.2695C50.1777 59.7357 50.1647 59.1758 50.2168 58.5898C50.2689 58.0039 50.4577 57.4635 50.7832 56.9688C51.1217 56.474 51.6296 56.0638 52.3066 55.7383C52.9967 55.4128 53.9277 55.25 55.0996 55.25ZM54.4551 62.8281C54.5983 62.8542 54.7936 62.8216 55.041 62.7305C55.2884 62.6263 55.5293 62.4635 55.7637 62.2422C56.0111 62.0208 56.2259 61.7409 56.4082 61.4023C56.6035 61.0508 56.7207 60.6276 56.7598 60.1328C56.7988 59.651 56.7988 59.2083 56.7598 58.8047C56.7337 58.401 56.6751 58.0495 56.584 57.75C56.4928 57.4375 56.3887 57.1836 56.2715 56.9883C56.1543 56.793 56.0306 56.6562 55.9004 56.5781C55.679 56.4609 55.4121 56.3698 55.0996 56.3047C54.7871 56.2266 54.5202 56.2396 54.2988 56.3438C54.1947 56.3958 54.0645 56.5065 53.9082 56.6758C53.752 56.8451 53.5957 57.0599 53.4395 57.3203C53.2832 57.5677 53.14 57.8542 53.0098 58.1797C52.8926 58.5052 52.8079 58.8438 52.7559 59.1953C52.7038 59.5469 52.6908 59.9245 52.7168 60.3281C52.7559 60.7318 52.8405 61.1159 52.9707 61.4805C53.1009 61.832 53.2832 62.138 53.5176 62.3984C53.765 62.6458 54.0775 62.7891 54.4551 62.8281ZM65.7441 55.25C66.0827 55.25 66.4342 55.3151 66.7988 55.4453C67.1634 55.5625 67.515 55.7188 67.8535 55.9141C68.1921 56.0964 68.498 56.2982 68.7715 56.5195C69.0579 56.7279 69.2923 56.9297 69.4746 57.125C69.8001 57.4766 70.0215 57.9518 70.1387 58.5508C70.2689 59.1367 70.2949 59.7422 70.2168 60.3672C70.1387 60.9792 69.9564 61.5586 69.6699 62.1055C69.3835 62.6523 68.9863 63.056 68.4785 63.3164C68.1139 63.4987 67.7559 63.6419 67.4043 63.7461C67.0527 63.8503 66.7142 63.9284 66.3887 63.9805C66.0632 64.0326 65.7572 64.0586 65.4707 64.0586C65.1842 64.0586 64.9368 64.0521 64.7285 64.0391C64.3379 64.013 63.9277 63.8763 63.498 63.6289C63.0814 63.3815 62.6842 63.0755 62.3066 62.7109C61.9421 62.3464 61.6296 61.9492 61.3691 61.5195C61.1087 61.0768 60.9525 60.6602 60.9004 60.2695C60.8223 59.7357 60.8092 59.1758 60.8613 58.5898C60.9134 58.0039 61.1022 57.4635 61.4277 56.9688C61.7663 56.474 62.2741 56.0638 62.9512 55.7383C63.6413 55.4128 64.5723 55.25 65.7441 55.25ZM65.0996 62.8281C65.2428 62.8542 65.4382 62.8216 65.6855 62.7305C65.9329 62.6263 66.1738 62.4635 66.4082 62.2422C66.6556 62.0208 66.8704 61.7409 67.0527 61.4023C67.248 61.0508 67.3652 60.6276 67.4043 60.1328C67.4434 59.651 67.4434 59.2083 67.4043 58.8047C67.3783 58.401 67.3197 58.0495 67.2285 57.75C67.1374 57.4375 67.0332 57.1836 66.916 56.9883C66.7988 56.793 66.6751 56.6562 66.5449 56.5781C66.3236 56.4609 66.0566 56.3698 65.7441 56.3047C65.4316 56.2266 65.1647 56.2396 64.9434 56.3438C64.8392 56.3958 64.709 56.5065 64.5527 56.6758C64.3965 56.8451 64.2402 57.0599 64.084 57.3203C63.9277 57.5677 63.7845 57.8542 63.6543 58.1797C63.5371 58.5052 63.4525 58.8438 63.4004 59.1953C63.3483 59.5469 63.3353 59.9245 63.3613 60.3281C63.4004 60.7318 63.485 61.1159 63.6152 61.4805C63.7454 61.832 63.9277 62.138 64.1621 62.3984C64.4095 62.6458 64.722 62.7891 65.0996 62.8281ZM70.959 49.918C71.1022 49.9831 71.2715 50.0286 71.4668 50.0547C71.6751 50.0807 71.8704 50.0938 72.0527 50.0938C72.2741 50.0938 72.502 50.0872 72.7363 50.0742C72.9707 50.0612 73.2572 50.0352 73.5957 49.9961C73.8691 49.9701 74.2077 49.9375 74.6113 49.8984C75.015 49.8594 75.4642 49.8073 75.959 49.7422C75.7767 49.8333 75.6204 49.931 75.4902 50.0352C75.36 50.1393 75.2493 50.2435 75.1582 50.3477C75.054 50.4648 74.9694 50.582 74.9043 50.6992C74.8132 50.8555 74.6895 51.1289 74.5332 51.5195C74.39 51.8971 74.2402 52.3203 74.084 52.7891C73.9408 53.2578 73.8105 53.7331 73.6934 54.2148C73.5892 54.6966 73.5306 55.1068 73.5176 55.4453C73.5046 55.7318 73.4915 56.0573 73.4785 56.4219C73.4655 56.7344 73.4525 57.1185 73.4395 57.5742C73.4264 58.0299 73.4134 58.5508 73.4004 59.1367C74.3379 58.4596 75.0605 57.9193 75.5684 57.5156C76.0762 57.099 76.4473 56.7799 76.6816 56.5586C76.9551 56.3112 77.1178 56.1354 77.1699 56.0312C77.1569 55.9531 77.1243 55.8685 77.0723 55.7773C77.0072 55.6992 76.916 55.6081 76.7988 55.5039C76.6816 55.3997 76.5059 55.2826 76.2715 55.1523C76.61 55.1914 76.903 55.2174 77.1504 55.2305C77.4108 55.2435 77.6322 55.2565 77.8145 55.2695C78.0228 55.2826 78.2051 55.2826 78.3613 55.2695C78.5306 55.2695 78.7389 55.263 78.9863 55.25C79.416 55.237 80.0801 55.2174 80.9785 55.1914C80.1061 55.6471 79.416 56.0378 78.9082 56.3633C78.6217 56.5456 78.3678 56.7148 78.1465 56.8711C77.9251 57.0404 77.6973 57.2161 77.4629 57.3984C77.2546 57.5547 77.0137 57.737 76.7402 57.9453C76.4798 58.1536 76.2194 58.375 75.959 58.6094C76.4147 59.3516 76.8118 59.9635 77.1504 60.4453C77.502 60.9271 77.7949 61.3177 78.0293 61.6172C78.3027 61.9688 78.5436 62.2487 78.752 62.457C78.9603 62.6523 79.2337 62.8737 79.5723 63.1211C79.8587 63.3424 80.2298 63.6029 80.6855 63.9023C81.1543 64.1888 81.7207 64.5208 82.3848 64.8984C82.0462 64.8333 81.7207 64.7878 81.4082 64.7617C81.0957 64.7487 80.8288 64.7487 80.6074 64.7617C80.334 64.7747 80.0866 64.8008 79.8652 64.8398C79.6309 64.8919 79.3704 64.957 79.084 65.0352C78.8366 65.1003 78.5436 65.1849 78.2051 65.2891C77.8796 65.4062 77.5215 65.556 77.1309 65.7383C77.3783 65.556 77.5605 65.3802 77.6777 65.2109C77.8079 65.0547 77.8991 64.9245 77.9512 64.8203C78.0033 64.6901 78.0228 64.5794 78.0098 64.4883C77.9447 64.3581 77.7949 64.0911 77.5605 63.6875C77.3392 63.349 77.0137 62.8542 76.584 62.2031C76.1543 61.5521 75.5423 60.6667 74.748 59.5469C74.709 59.5599 74.6439 59.599 74.5527 59.6641C74.4746 59.7292 74.3574 59.8203 74.2012 59.9375C74.0449 60.0417 73.8366 60.1979 73.5762 60.4062L74.1035 63.8242C73.9863 63.8763 73.8561 63.9219 73.7129 63.9609C73.5827 64 73.459 64.0326 73.3418 64.0586C73.1986 64.0977 73.0553 64.1237 72.9121 64.1367C72.7689 64.1497 72.5996 64.1758 72.4043 64.2148C72.235 64.2409 72.0332 64.2734 71.7988 64.3125C71.5645 64.3646 71.2975 64.4232 70.998 64.4883C71.1673 64.3711 71.304 64.2344 71.4082 64.0781C71.5124 63.9349 71.597 63.7982 71.6621 63.668C71.7272 63.5247 71.7858 63.375 71.8379 63.2188C71.8639 63.0885 71.89 62.75 71.916 62.2031C71.9551 61.6562 71.9876 61.0052 72.0137 60.25C72.0397 59.4818 72.0592 58.6615 72.0723 57.7891C72.0983 56.9167 72.1113 56.0964 72.1113 55.3281C72.1113 54.5469 72.1048 53.8698 72.0918 53.2969C72.0788 52.7109 72.0527 52.3333 72.0137 52.1641C71.9486 51.9557 71.8704 51.7344 71.7793 51.5C71.7012 51.2917 71.5905 51.0573 71.4473 50.7969C71.3171 50.5234 71.1543 50.2305 70.959 49.918ZM80.2754 55.2695L83.8691 55.3086C83.6608 56.1029 83.5046 56.7799 83.4004 57.3398C83.3092 57.8997 83.2507 58.3685 83.2246 58.7461C83.1725 59.1758 83.1595 59.5404 83.1855 59.8398C83.2246 60.1133 83.2897 60.4062 83.3809 60.7188C83.459 60.9792 83.5762 61.2786 83.7324 61.6172C83.8887 61.9557 84.097 62.2943 84.3574 62.6328C84.2012 62.5807 84.0319 62.5417 83.8496 62.5156C83.6673 62.4896 83.498 62.4701 83.3418 62.457C83.1595 62.444 82.9772 62.444 82.7949 62.457C82.6126 62.4701 82.4108 62.4896 82.1895 62.5156C82.0072 62.5417 81.7858 62.5742 81.5254 62.6133C81.265 62.6523 80.9915 62.7044 80.7051 62.7695C80.9004 62.1836 81.0501 61.6758 81.1543 61.2461C81.2715 60.8164 81.3561 60.4583 81.4082 60.1719C81.4603 59.8333 81.4928 59.5599 81.5059 59.3516C81.5059 59.0911 81.5059 58.7982 81.5059 58.4727C81.5059 58.1341 81.5059 57.8086 81.5059 57.4961C81.5059 57.1836 81.4993 56.9102 81.4863 56.6758C81.4733 56.4284 81.4473 56.2721 81.4082 56.207L81.2129 56.0117C81.1348 55.9466 81.0176 55.8555 80.8613 55.7383C80.7181 55.6081 80.5228 55.4518 80.2754 55.2695ZM81.6621 52.2617C81.9355 52.1185 82.209 52.0794 82.4824 52.1445C82.7689 52.2096 82.9902 52.3333 83.1465 52.5156C83.3027 52.6979 83.3548 52.9128 83.3027 53.1602C83.2637 53.4076 83.0553 53.6484 82.6777 53.8828C82.3001 54.1042 81.9681 54.1823 81.6816 54.1172C81.3952 54.0521 81.1934 53.9154 81.0762 53.707C80.959 53.4987 80.9395 53.2578 81.0176 52.9844C81.0957 52.6979 81.3105 52.457 81.6621 52.2617ZM90.1387 60.8555C90.5033 60.8555 90.8418 60.8164 91.1543 60.7383C91.4147 60.6732 91.6621 60.569 91.8965 60.4258C92.1439 60.2695 92.3066 60.0417 92.3848 59.7422C92.6452 59.7943 92.8665 59.8398 93.0488 59.8789C93.2311 59.9049 93.3874 59.931 93.5176 59.957C93.6608 59.9961 93.7845 60.0221 93.8887 60.0352C93.9928 60.0612 94.1165 60.0872 94.2598 60.1133C94.39 60.1393 94.5462 60.1719 94.7285 60.2109C94.9238 60.237 95.1517 60.276 95.4121 60.3281C95.2168 60.3021 95.015 60.3216 94.8066 60.3867C94.6113 60.4518 94.4225 60.5234 94.2402 60.6016C94.0319 60.6927 93.8366 60.8034 93.6543 60.9336C93.5371 61.0117 93.4004 61.1289 93.2441 61.2852C93.1009 61.4414 92.8926 61.5911 92.6191 61.7344C92.3457 61.8776 91.9811 62.0013 91.5254 62.1055C91.0827 62.1966 90.5098 62.2292 89.8066 62.2031C88.9603 62.1771 88.2507 62.0273 87.6777 61.7539C87.1048 61.4674 86.6426 61.1224 86.291 60.7188C85.9395 60.3021 85.6855 59.8529 85.5293 59.3711C85.373 58.8893 85.2884 58.4401 85.2754 58.0234C85.2624 57.6068 85.3861 57.1706 85.6465 56.7148C85.9069 56.2591 86.2715 55.8424 86.7402 55.4648C87.222 55.0872 87.8014 54.7812 88.4785 54.5469C89.1556 54.2995 89.8978 54.1758 90.7051 54.1758C91.1738 54.1758 91.6035 54.2344 91.9941 54.3516C92.3978 54.4557 92.7624 54.599 93.0879 54.7812C93.4264 54.9635 93.7194 55.1719 93.9668 55.4062C94.2142 55.6276 94.4225 55.8555 94.5918 56.0898C94.7611 56.3372 94.9043 56.5977 95.0215 56.8711C95.1257 57.1055 95.2103 57.3724 95.2754 57.6719C95.3405 57.9714 95.36 58.2773 95.334 58.5898C94.3444 58.6159 93.5436 58.6354 92.9316 58.6484C92.3327 58.6615 91.8639 58.668 91.5254 58.668H90.6465H89.9824C89.748 58.668 89.4421 58.6745 89.0645 58.6875C88.6868 58.7005 88.2246 58.7201 87.6777 58.7461C87.7428 59.2669 87.9056 59.6706 88.166 59.957C88.4395 60.2305 88.7259 60.4388 89.0254 60.582C89.3639 60.7383 89.735 60.8294 90.1387 60.8555ZM88.3809 57.3398C88.7975 57.3659 89.1426 57.3854 89.416 57.3984C89.7025 57.4115 89.9368 57.4245 90.1191 57.4375C90.3145 57.4505 90.4707 57.457 90.5879 57.457H91.0762C91.4017 57.457 92.0072 57.4375 92.8926 57.3984C92.8535 56.8255 92.7298 56.3893 92.5215 56.0898C92.3262 55.7904 92.1178 55.569 91.8965 55.4258C91.6361 55.2695 91.3496 55.1784 91.0371 55.1523C90.1908 55.1654 89.5592 55.3411 89.1426 55.6797C88.7389 56.0182 88.485 56.5716 88.3809 57.3398Z" fill="black"/>
<path d="M38.2167 49.276C36.662 49.276 35.166 49.0413 33.7287 48.572C32.3207 48.132 31.1767 47.384 30.2967 46.328C29.4167 45.272 28.9767 43.8493 28.9767 42.06C28.9767 40.1533 29.3434 38.2907 30.0767 36.472C30.81 34.6533 31.7927 32.9667 33.0247 31.412C34.2567 29.828 35.6354 28.464 37.1607 27.32C38.51 26.2933 40.0647 25.4573 41.8247 24.812C43.614 24.1667 45.3887 23.844 47.1487 23.844C47.882 23.844 48.5714 23.9027 49.2167 24.02C49.862 24.108 50.522 24.3133 51.1967 24.636C51.7834 24.9 52.2527 25.2373 52.6047 25.648C52.9567 26.0293 53.1327 26.4693 53.1327 26.968C53.1327 27.0267 53.1327 27.1 53.1327 27.188C53.1327 27.276 53.118 27.3493 53.0887 27.408C52.9714 27.8773 52.6927 28.42 52.2527 29.036C51.842 29.6227 51.5194 30.2387 51.2847 30.884C51.2554 31.0013 51.094 31.104 50.8007 31.192C50.5074 31.2507 50.39 31.2213 50.4487 31.104C50.6834 30.7227 50.8594 30.2533 50.9767 29.696C51.1234 29.1387 51.1967 28.5813 51.1967 28.024C51.1967 27.6133 51.1527 27.232 51.0647 26.88C51.006 26.4987 50.8887 26.176 50.7127 25.912C50.4194 25.384 49.9647 25.0173 49.3487 24.812C48.7327 24.6067 48.0727 24.504 47.3687 24.504C46.694 24.504 46.0194 24.5773 45.3447 24.724C44.67 24.8707 44.0834 25.032 43.5847 25.208C41.8834 25.824 40.2554 26.792 38.7007 28.112C37.322 29.3147 36.09 30.708 35.0047 32.292C33.9487 33.876 33.1127 35.504 32.4967 37.176C31.8807 38.848 31.5727 40.4467 31.5727 41.972C31.5727 43.5267 31.91 44.7587 32.5847 45.668C33.2594 46.5773 34.1394 47.2227 35.2247 47.604C36.31 47.9853 37.4834 48.176 38.7447 48.176C39.8594 48.176 40.9594 48.0587 42.0447 47.824C43.1594 47.5893 44.1714 47.296 45.0807 46.944C46.6354 46.3573 48.0287 45.6387 49.2607 44.788C50.522 43.9373 51.6954 42.8373 52.7807 41.488C52.9274 41.3413 53.03 41.268 53.0887 41.268C53.1767 41.268 53.2207 41.3267 53.2207 41.444C53.2207 41.6787 53.1034 41.9573 52.8687 42.28C51.8714 43.6293 50.742 44.7587 49.4807 45.668C48.2194 46.5773 46.87 47.3253 45.4327 47.912C44.4647 48.2933 43.3354 48.616 42.0447 48.88C40.7834 49.144 39.5074 49.276 38.2167 49.276ZM52.7078 48.088C52.2385 48.088 51.8131 48 51.4318 47.824C51.0798 47.6187 50.9038 47.1933 50.9038 46.548C50.9038 45.5213 51.1678 44.4947 51.6958 43.468C52.2238 42.412 52.7665 41.488 53.3238 40.696C53.8225 40.0213 54.3798 39.3907 54.9958 38.804C55.6411 38.188 56.3305 37.66 57.0638 37.22C57.5331 36.9267 58.1638 36.6187 58.9558 36.296C59.7771 35.944 60.4665 35.768 61.0238 35.768C61.4931 35.768 61.9038 35.9 62.2558 36.164C62.6078 36.3987 62.7838 36.8387 62.7838 37.484C62.7838 38.4813 62.5198 39.508 61.9918 40.564C61.4931 41.5907 60.9651 42.5 60.4078 43.292C60.1438 43.644 59.8798 43.9813 59.6158 44.304C59.3518 44.5973 59.0585 44.9053 58.7358 45.228C59.8211 45.228 60.8185 44.92 61.7278 44.304C62.6371 43.6587 63.4291 42.8813 64.1038 41.972L64.1918 41.884C64.2798 41.884 64.3238 41.972 64.3238 42.148C64.3238 42.3533 64.2651 42.544 64.1478 42.72C63.5611 43.5413 62.8278 44.2747 61.9478 44.92C61.0678 45.536 60.0705 45.844 58.9558 45.844C58.8385 45.844 58.7211 45.844 58.6038 45.844C58.4865 45.844 58.3691 45.8293 58.2518 45.8C56.6091 47.3253 54.7611 48.088 52.7078 48.088ZM53.8518 47.34C54.2625 47.34 54.7025 47.1933 55.1718 46.9C55.6705 46.6067 56.0518 46.328 56.3158 46.064C56.8145 45.5653 57.2691 45.0373 57.6798 44.48C58.0905 43.8933 58.4718 43.3067 58.8238 42.72C59.2345 42.016 59.6451 41.18 60.0558 40.212C60.4665 39.244 60.6718 38.3347 60.6718 37.484C60.6718 36.8093 60.4371 36.472 59.9678 36.472C59.5865 36.472 59.1171 36.6333 58.5598 36.956C58.0318 37.2787 57.6358 37.572 57.3718 37.836C56.3745 38.8627 55.5385 39.9773 54.8638 41.18C54.4825 41.8547 54.0718 42.6467 53.6318 43.556C53.1918 44.4653 52.9718 45.3013 52.9718 46.064C52.9718 46.1813 52.9718 46.2987 52.9718 46.416C53.0011 46.504 53.0305 46.6067 53.0598 46.724C53.1771 47.1347 53.4411 47.34 53.8518 47.34ZM64.3523 48.088C63.883 48.088 63.4577 48 63.0763 47.824C62.7243 47.6187 62.5483 47.1933 62.5483 46.548C62.5483 45.5213 62.8123 44.4947 63.3403 43.468C63.8683 42.412 64.411 41.488 64.9683 40.696C65.467 40.0213 66.0243 39.3907 66.6403 38.804C67.2857 38.188 67.975 37.66 68.7083 37.22C69.1777 36.9267 69.8083 36.6187 70.6003 36.296C71.4217 35.944 72.111 35.768 72.6683 35.768C73.1377 35.768 73.5483 35.9 73.9003 36.164C74.2523 36.3987 74.4283 36.8387 74.4283 37.484C74.4283 38.4813 74.1643 39.508 73.6363 40.564C73.1377 41.5907 72.6097 42.5 72.0523 43.292C71.7883 43.644 71.5243 43.9813 71.2603 44.304C70.9963 44.5973 70.703 44.9053 70.3803 45.228C71.4657 45.228 72.463 44.92 73.3723 44.304C74.2817 43.6587 75.0737 42.8813 75.7483 41.972L75.8363 41.884C75.9243 41.884 75.9683 41.972 75.9683 42.148C75.9683 42.3533 75.9097 42.544 75.7923 42.72C75.2057 43.5413 74.4723 44.2747 73.5923 44.92C72.7123 45.536 71.715 45.844 70.6003 45.844C70.483 45.844 70.3657 45.844 70.2483 45.844C70.131 45.844 70.0137 45.8293 69.8963 45.8C68.2537 47.3253 66.4057 48.088 64.3523 48.088ZM65.4963 47.34C65.907 47.34 66.347 47.1933 66.8163 46.9C67.315 46.6067 67.6963 46.328 67.9603 46.064C68.459 45.5653 68.9137 45.0373 69.3243 44.48C69.735 43.8933 70.1163 43.3067 70.4683 42.72C70.879 42.016 71.2897 41.18 71.7003 40.212C72.111 39.244 72.3163 38.3347 72.3163 37.484C72.3163 36.8093 72.0817 36.472 71.6123 36.472C71.231 36.472 70.7617 36.6333 70.2043 36.956C69.6763 37.2787 69.2803 37.572 69.0163 37.836C68.019 38.8627 67.183 39.9773 66.5083 41.18C66.127 41.8547 65.7163 42.6467 65.2763 43.556C64.8363 44.4653 64.6163 45.3013 64.6163 46.064C64.6163 46.1813 64.6163 46.2987 64.6163 46.416C64.6457 46.504 64.675 46.6067 64.7043 46.724C64.8217 47.1347 65.0857 47.34 65.4963 47.34ZM83.1689 48.22C82.4355 48.22 81.8782 47.9707 81.4969 47.472C81.2622 47.12 81.0275 46.592 80.7929 45.888C80.5582 45.184 80.3529 44.4507 80.1769 43.688C80.0009 42.9253 79.8542 42.3093 79.7369 41.84C78.9155 42.896 78.1822 43.952 77.5369 45.008C76.9209 46.064 76.5102 46.8853 76.3049 47.472C76.2462 47.648 76.0409 47.7947 75.6889 47.912C75.3662 48.0293 75.0435 48.088 74.7209 48.088C74.2515 48.088 74.0755 47.9413 74.1929 47.648C75.1022 45.624 75.9675 43.6733 76.7889 41.796C77.6102 39.9187 78.4755 38.0267 79.3849 36.12C80.3235 34.2133 81.3795 32.2333 82.5529 30.18C83.3742 28.684 84.3569 27.2467 85.5009 25.868C86.6742 24.46 87.9209 23.316 89.2409 22.436C90.5609 21.5267 91.8955 21.072 93.2449 21.072C93.6849 21.072 94.0955 21.1893 94.4769 21.424C94.8582 21.6587 95.0489 22.0253 95.0489 22.524V23.8C95.0489 23.9173 94.9609 23.976 94.7849 23.976C94.6969 23.976 94.6529 23.9467 94.6529 23.888C94.6529 23.4187 94.4475 23.1107 94.0369 22.964C93.6262 22.788 93.2302 22.7 92.8489 22.7C91.8222 22.7 90.7809 22.9053 89.7249 23.316C88.5515 23.7853 87.5689 24.4893 86.7769 25.428C85.9849 26.3667 85.2515 27.364 84.5769 28.42C83.6969 29.7693 82.8315 31.3533 81.9809 33.172C81.1302 34.9613 80.3382 36.7653 79.6049 38.584C78.9009 40.4027 78.2702 42.0453 77.7129 43.512C78.0355 43.1013 78.3582 42.6907 78.6809 42.28C79.0035 41.8693 79.3115 41.488 79.6049 41.136C79.6049 41.0773 79.5902 41.0187 79.5609 40.96C79.5609 40.9013 79.5609 40.8427 79.5609 40.784C79.5609 40.5787 79.6049 40.4027 79.6929 40.256C79.7809 40.1093 79.8982 39.9333 80.0449 39.728C80.2502 39.4347 80.4409 39.2147 80.6169 39.068C80.7929 38.892 80.9835 38.672 81.1889 38.408L81.3209 39.156C82.6115 37.836 83.7409 36.8827 84.7089 36.296C85.3835 35.8853 86.0435 35.68 86.6889 35.68C87.3342 35.68 87.6569 35.9293 87.6569 36.428C87.6569 36.8387 87.4515 37.352 87.0409 37.968C86.8942 38.1733 86.8062 38.32 86.7769 38.408C86.7475 38.496 86.6889 38.584 86.6009 38.672C86.5715 38.7013 86.5129 38.7013 86.4249 38.672C86.3369 38.6427 86.2929 38.5987 86.2929 38.54C86.2929 38.188 86.1755 37.968 85.9409 37.88C85.7062 37.7627 85.4422 37.704 85.1489 37.704C84.5915 37.704 83.9902 37.9093 83.3449 38.32C82.7289 38.7013 82.0982 39.2293 81.4529 39.904C81.5995 40.6373 81.7609 41.444 81.9369 42.324C82.1422 43.1747 82.3622 43.9667 82.5969 44.7C82.8315 45.4333 83.0515 45.976 83.2569 46.328C83.4035 46.5627 83.6089 46.724 83.8729 46.812C84.1369 46.8707 84.3569 46.9 84.5329 46.9C84.9435 46.9 85.4129 46.6947 85.9409 46.284C86.4982 45.844 87.0555 45.3307 87.6129 44.744C88.1995 44.128 88.7275 43.5267 89.1969 42.94C89.6955 42.3533 90.0769 41.884 90.3409 41.532C90.4582 41.6787 90.4875 41.8253 90.4289 41.972C90.3995 42.148 90.3115 42.3387 90.1649 42.544C90.0475 42.72 89.9302 42.8813 89.8129 43.028C89.2262 43.7613 88.5955 44.5093 87.9209 45.272C87.2462 46.0053 86.5275 46.6653 85.7649 47.252C85.4422 47.516 85.0462 47.7507 84.5769 47.956C84.1075 48.132 83.6382 48.22 83.1689 48.22ZM98.7105 31.192C98.2998 31.192 98.0065 31.06 97.8305 30.796C97.7132 30.6493 97.6545 30.4587 97.6545 30.224C97.6545 29.7547 97.8745 29.3733 98.3145 29.08C98.6372 28.904 98.9305 28.816 99.1945 28.816C99.6345 28.816 99.9425 28.948 100.119 29.212C100.236 29.3587 100.295 29.5493 100.295 29.784C100.295 30.2533 100.06 30.6347 99.5905 30.928C99.3265 31.104 99.0332 31.192 98.7105 31.192ZM91.0545 48.132C90.7612 48.132 90.5118 48.0733 90.3065 47.956C90.1305 47.8387 90.0425 47.6187 90.0425 47.296C90.0425 46.8853 90.1452 46.4013 90.3505 45.844C90.5852 45.2867 90.8345 44.7293 91.0985 44.172C91.3918 43.6147 91.6118 43.16 91.7585 42.808C91.9638 42.3973 92.2132 41.8693 92.5065 41.224C92.8292 40.5493 93.1225 39.9187 93.3865 39.332C93.6798 38.716 93.8852 38.2907 94.0025 38.056C93.5918 38.496 93.0932 39.0533 92.5065 39.728C91.9492 40.3733 91.4212 41.004 90.9225 41.62C90.4238 42.236 90.0425 42.72 89.7785 43.072C89.6905 43.1893 89.6172 43.248 89.5585 43.248C89.4998 43.248 89.4705 43.1747 89.4705 43.028C89.4705 42.7933 89.5438 42.5733 89.6905 42.368C90.2478 41.664 90.8638 40.872 91.5385 39.992C92.2425 39.112 92.8732 38.3053 93.4305 37.572C93.9878 36.8093 94.3398 36.3107 94.4865 36.076C94.8092 36.0173 95.2785 35.9293 95.8945 35.812C96.5398 35.6947 96.9798 35.5333 97.2145 35.328C97.3025 35.24 97.3905 35.196 97.4785 35.196C97.5372 35.196 97.5665 35.2547 97.5665 35.372C97.5958 35.46 97.5665 35.5627 97.4785 35.68C97.3025 35.8853 96.9945 36.384 96.5545 37.176C96.1145 37.968 95.6452 38.848 95.1465 39.816C94.6772 40.7547 94.2372 41.6053 93.8265 42.368C93.4158 43.16 93.0638 43.9227 92.7705 44.656C92.4772 45.3893 92.3305 45.9173 92.3305 46.24C92.3305 46.6507 92.5358 46.856 92.9465 46.856C93.3278 46.856 93.8118 46.6213 94.3985 46.152C95.0145 45.6827 95.6305 45.1253 96.2465 44.48C96.8625 43.8053 97.4052 43.1893 97.8745 42.632C98.0212 42.456 98.1972 42.2507 98.4025 42.016C98.6372 41.752 98.7838 41.5907 98.8425 41.532C98.9012 41.5907 98.9305 41.6933 98.9305 41.84C98.9012 42.0453 98.8278 42.2507 98.7105 42.456C98.5932 42.632 98.4758 42.7933 98.3585 42.94C97.7425 43.7027 97.0678 44.4947 96.3345 45.316C95.6012 46.108 94.7945 46.7827 93.9145 47.34C93.0345 47.868 92.0812 48.132 91.0545 48.132ZM98.2873 48.66C98.17 48.66 98.17 48.528 98.2873 48.264C98.434 48 98.566 47.7067 98.6833 47.384C98.83 47.0613 98.9767 46.7093 99.1233 46.328C99.4167 45.624 99.7393 44.832 100.091 43.952C100.443 43.072 100.781 42.2213 101.103 41.4C101.426 40.5493 101.705 39.8307 101.939 39.244C102.203 38.628 102.379 38.232 102.467 38.056C102.057 38.496 101.558 39.0533 100.971 39.728C100.414 40.3733 99.886 41.004 99.3873 41.62C98.8887 42.236 98.5073 42.72 98.2433 43.072C98.1553 43.1893 98.082 43.248 98.0233 43.248C97.9647 43.248 97.9353 43.1747 97.9353 43.028C97.9353 42.7933 98.0087 42.5733 98.1553 42.368C98.7127 41.664 99.3287 40.872 100.003 39.992C100.707 39.112 101.338 38.3053 101.895 37.572C102.453 36.8093 102.805 36.3107 102.951 36.076C103.274 36.0173 103.743 35.9293 104.359 35.812C105.005 35.6947 105.445 35.5333 105.679 35.328C105.767 35.24 105.855 35.196 105.943 35.196C106.002 35.196 106.031 35.2547 106.031 35.372C106.061 35.46 106.031 35.5627 105.943 35.68C105.767 35.8853 105.459 36.3693 105.019 37.132C104.609 37.8653 104.154 38.6867 103.655 39.596C103.186 40.5053 102.746 41.3267 102.335 42.06C102.687 41.5907 103.069 41.136 103.479 40.696C103.89 40.256 104.286 39.8307 104.667 39.42C105.019 39.068 105.503 38.628 106.119 38.1C106.735 37.572 107.381 37.088 108.055 36.648C108.73 36.208 109.317 35.9587 109.815 35.9C109.933 35.8707 110.035 35.856 110.123 35.856C110.241 35.856 110.329 35.856 110.387 35.856C111.033 35.856 111.355 36.0907 111.355 36.56C111.355 36.912 111.165 37.3813 110.783 37.968C110.578 38.2907 110.255 38.8333 109.815 39.596C109.405 40.3293 108.979 41.136 108.539 42.016C108.129 42.8667 107.762 43.6733 107.439 44.436C107.146 45.1693 106.999 45.712 106.999 46.064C106.999 46.4747 107.205 46.68 107.615 46.68C108.114 46.68 108.657 46.4307 109.243 45.932C109.859 45.4333 110.519 44.8027 111.223 44.04C111.927 43.248 112.631 42.412 113.335 41.532C113.394 41.5907 113.423 41.6933 113.423 41.84C113.423 42.0453 113.35 42.2507 113.203 42.456C113.086 42.632 112.969 42.7933 112.851 42.94C112.558 43.3213 112.162 43.8053 111.663 44.392C111.194 44.9493 110.71 45.5067 110.211 46.064C109.713 46.592 109.258 47.0173 108.847 47.34C108.554 47.5453 108.173 47.7653 107.703 48C107.234 48.2347 106.765 48.352 106.295 48.352C105.767 48.352 105.401 48.22 105.195 47.956C104.99 47.6627 104.887 47.3107 104.887 46.9C104.887 46.4307 104.975 45.932 105.151 45.404C105.327 44.876 105.518 44.3773 105.723 43.908C105.958 43.4093 106.134 43.0427 106.251 42.808C106.779 41.7813 107.263 40.8133 107.703 39.904C108.143 38.9947 108.451 38.3493 108.627 37.968C108.715 37.792 108.759 37.6453 108.759 37.528C108.759 37.3227 108.598 37.308 108.275 37.484C107.953 37.66 107.557 37.924 107.087 38.276C106.647 38.628 106.237 38.98 105.855 39.332C105.474 39.6547 105.225 39.8747 105.107 39.992C104.022 41.136 103.069 42.412 102.247 43.82C101.455 45.1987 100.781 46.6213 100.223 48.088C99.842 48.1173 99.4607 48.22 99.0793 48.396C98.698 48.572 98.434 48.66 98.2873 48.66ZM104.671 63.4C103.556 63.4 102.485 63.136 101.459 62.608C100.403 62.1093 99.6254 61.332 99.1268 60.276C98.9214 59.8947 98.7894 59.484 98.7308 59.044C98.6721 58.6333 98.6428 58.2227 98.6428 57.812V57.372C98.6428 57.1373 98.6721 56.9173 98.7308 56.712C98.7894 56.5067 98.9508 56.404 99.2148 56.404C99.2734 56.404 99.3028 56.4333 99.3028 56.492C99.3028 56.668 99.2881 56.844 99.2588 57.02C99.2294 57.196 99.2148 57.3867 99.2148 57.592C99.2148 58.9413 99.6548 59.968 100.535 60.672C101.385 61.376 102.456 61.728 103.747 61.728C104.275 61.728 104.817 61.6693 105.375 61.552C105.932 61.4347 106.445 61.2733 106.915 61.068C108.792 60.276 110.42 59.132 111.799 57.636C113.207 56.14 114.424 54.4533 115.451 52.576C116.507 50.6987 117.431 48.7773 118.223 46.812C119.044 44.8173 119.807 42.94 120.511 41.18C119.895 42.1773 119.22 43.072 118.487 43.864C117.753 44.6267 116.932 45.3893 116.023 46.152C115.465 46.6213 114.849 47.0613 114.175 47.472C113.529 47.8827 112.825 48.088 112.063 48.088C111.769 48.088 111.564 48 111.447 47.824C111.329 47.6187 111.271 47.384 111.271 47.12V46.812C111.417 45.668 111.784 44.48 112.371 43.248C112.987 42.016 113.72 40.8573 114.571 39.772C115.421 38.6867 116.287 37.8067 117.167 37.132C118.164 36.3693 119.264 35.988 120.467 35.988H125.527C125.673 35.988 125.747 36.0467 125.747 36.164C125.747 36.3987 125.615 36.516 125.351 36.516C125.028 36.516 124.72 36.648 124.427 36.912C124.133 37.176 123.913 37.4253 123.767 37.66C123.473 38.1293 123.092 38.848 122.623 39.816C122.153 40.784 121.64 41.8987 121.083 43.16C120.525 44.392 119.968 45.6533 119.411 46.944C118.853 48.2053 118.34 49.3933 117.871 50.508C117.167 52.18 116.36 53.808 115.451 55.392C114.571 57.0053 113.515 58.4427 112.283 59.704C111.08 60.9947 109.643 62.0067 107.971 62.74C106.973 63.18 105.873 63.4 104.671 63.4ZM113.867 46.592C114.219 46.592 114.703 46.3427 115.319 45.844C115.935 45.316 116.609 44.6707 117.343 43.908C118.076 43.116 118.765 42.2947 119.411 41.444C120.056 40.564 120.584 39.772 120.995 39.068C121.435 38.3347 121.655 37.7773 121.655 37.396C121.655 37.0733 121.552 36.8533 121.347 36.736C121.171 36.6187 120.936 36.56 120.643 36.56C120.173 36.56 119.675 36.736 119.147 37.088C118.619 37.4107 118.193 37.7333 117.871 38.056C117.519 38.3787 117.093 38.892 116.595 39.596C116.125 40.2707 115.641 41.0187 115.143 41.84C114.673 42.6613 114.277 43.4533 113.955 44.216C113.632 44.9787 113.471 45.5947 113.471 46.064C113.471 46.416 113.603 46.592 113.867 46.592Z" fill="black"/>
</svg>
